<?xml version="1.0" encoding="utf-8"?>
<!-- Generator: Adobe Illustrator 26.4.1, SVG Export Plug-In . SVG Version: 6.00 Build 0)  -->
<svg version="1.1" id="Layer_1" xmlns="http://www.w3.org/2000/svg" xmlns:xlink="http://www.w3.org/1999/xlink" x="0px" y="0px"
	 viewBox="0 0 1563.3 492" style="enable-background:new 0 0 1563.3 492;" xml:space="preserve">
<style type="text/css">
	.st0{fill:#233173;}
	.st1{fill:#007E60;}
</style>
<g>
	<g>
		<path class="st0" d="M597.1,87.1v68.8h23.6v11.4H585V87.1H597.1z"/>
		<path class="st0" d="M683.7,147.8h-34.3l-8.9,19.5h-13l39.7-85.2l38.3,85.2h-13.2L683.7,147.8z M678.8,136.5l-11.9-27.3
			l-12.5,27.3H678.8z"/>
		<path class="st0" d="M733,98.5v68.8h-12.1V98.5h-18.4V87.1h48.9v11.4H733z"/>
		<path class="st0" d="M771,87.1l22.2,55.6l22.5-55.6h13.2l-36,86.2l-35.2-86.2H771z"/>
		<path class="st0" d="M851,87.1v80.2h-12.1V87.1H851z"/>
		<path class="st0" d="M894.7,87.1V139c0,6.2-0.4,10.8-1.3,13.9c-0.9,3.5-2.3,6.4-4.4,8.8c-4.1,4.7-9.4,7.1-16.1,7.1
			c-5.1,0-9.8-1.3-14.2-3.9l5.9-10.3c2.9,2,5.7,3,8.3,3c3.6,0,6.1-1.4,7.5-4.1c1.5-2.7,2.2-7.5,2.2-14.3V87.1H894.7z"/>
		<path class="st0" d="M958.2,147.8h-34.3l-8.9,19.5h-13l39.7-85.2l38.3,85.2h-13.2L958.2,147.8z M953.3,136.5l-11.9-27.3
			l-12.5,27.3H953.3z"/>
		<path class="st0" d="M1035.2,99.1l-9.8,5.8c-1.8-3.2-3.6-5.3-5.2-6.2c-1.7-1.1-4-1.7-6.7-1.7c-3.4,0-6.1,1-8.4,2.9
			c-2.2,1.9-3.3,4.2-3.3,7.1c0,3.9,2.9,7.1,8.7,9.4l8,3.3c6.5,2.6,11.3,5.8,14.3,9.6c3,3.8,4.5,8.4,4.5,13.9
			c0,7.4-2.5,13.5-7.4,18.3c-5,4.8-11.1,7.3-18.4,7.3c-7,0-12.7-2.1-17.2-6.2c-4.5-4.1-7.3-9.9-8.4-17.4l12.3-2.7
			c0.6,4.7,1.5,8,2.9,9.8c2.5,3.5,6.1,5.2,10.9,5.2c3.8,0,6.9-1.3,9.4-3.8c2.5-2.5,3.7-5.7,3.7-9.6c0-1.6-0.2-3-0.6-4.3
			c-0.4-1.3-1.1-2.5-2-3.6c-0.9-1.1-2.1-2.1-3.6-3.1c-1.5-1-3.2-1.9-5.2-2.7l-7.7-3.2c-11-4.6-16.5-11.4-16.5-20.4
			c0-6,2.3-11.1,6.9-15.1c4.6-4.1,10.3-6.1,17.2-6.1C1022.8,85.6,1030,90.1,1035.2,99.1z"/>
	</g>
	<g>
		<path class="st0" d="M596.8,250.6h34.1v-30.9h11.9v79.1h-11.9v-36.9h-34.1v36.9h-11.9v-79.1h11.9V250.6z"/>
		<path class="st0" d="M673.8,219.7v79.1h-11.9v-79.1H673.8z"/>
		<path class="st0" d="M692.8,298.8v-79.1h16.6c8,0,14.2,0.8,18.9,2.4c5,1.5,9.4,4.1,13.5,7.8c8.2,7.4,12.2,17.2,12.2,29.4
			c0,12.2-4.3,22-12.8,29.5c-4.3,3.8-8.7,6.4-13.4,7.8c-4.4,1.5-10.6,2.2-18.6,2.2H692.8z M704.7,287.6h5.4c5.4,0,9.8-0.6,13.4-1.7
			c3.5-1.2,6.8-3.1,9.6-5.7c5.9-5.4,8.8-12.3,8.8-21c0-8.7-2.9-15.7-8.7-21.1c-5.2-4.8-12.9-7.2-23.1-7.2h-5.4V287.6z"/>
		<path class="st0" d="M795.7,265.1l24.5,33.7h-14.6L783,266.4h-2.2v32.4H769v-79.1h14c10.5,0,18,2,22.6,5.9
			c5.1,4.4,7.7,10.1,7.7,17.3c0,5.6-1.6,10.4-4.8,14.4C805.2,261.4,801,264,795.7,265.1z M780.9,256h3.8c11.3,0,17-4.3,17-13
			c0-8.1-5.5-12.1-16.5-12.1h-4.3V256z"/>
		<path class="st0" d="M826.4,258.9c0-11.1,4.1-20.7,12.2-28.7c8.1-8,17.9-12,29.3-12c11.3,0,20.9,4,29,12.1
			c8.1,8.1,12.1,17.7,12.1,29c0,11.4-4.1,21-12.2,28.9c-8.2,8-18,11.9-29.6,11.9c-10.2,0-19.4-3.5-27.5-10.6
			C830.9,281.8,826.4,271.6,826.4,258.9z M838.4,259c0,8.7,2.9,15.9,8.8,21.6c5.8,5.6,12.6,8.5,20.2,8.5c8.3,0,15.3-2.9,21-8.6
			c5.7-5.8,8.6-12.9,8.6-21.2c0-8.4-2.8-15.5-8.5-21.2c-5.6-5.7-12.5-8.6-20.8-8.6c-8.2,0-15.2,2.9-20.9,8.6
			C841.3,243.7,838.4,250.7,838.4,259z"/>
		<path class="st0" d="M967.7,230.9H936v19h30.8v11.2H936v26.4h31.7v11.2h-43.6v-79.1h43.6V230.9z"/>
		<path class="st0" d="M995.3,251.2l30.8-31.6h15.9l-35.8,35.8l36,43.3h-16l-28.5-35.2l-2.5,2.5v32.7h-11.9v-79.1h11.9V251.2z"/>
		<path class="st0" d="M1044.5,258.9c0-11.1,4.1-20.7,12.2-28.7c8.1-8,17.9-12,29.3-12c11.3,0,20.9,4,29,12.1
			c8.1,8.1,12.1,17.7,12.1,29c0,11.4-4.1,21-12.2,28.9c-8.2,8-18,11.9-29.6,11.9c-10.2,0-19.4-3.5-27.5-10.6
			C1048.9,281.8,1044.5,271.6,1044.5,258.9z M1056.5,259c0,8.7,2.9,15.9,8.8,21.6c5.8,5.6,12.6,8.5,20.2,8.5c8.3,0,15.3-2.9,21-8.6
			c5.7-5.8,8.6-12.9,8.6-21.2c0-8.4-2.8-15.5-8.5-21.2c-5.6-5.7-12.5-8.6-20.8-8.6c-8.2,0-15.2,2.9-20.9,8.6
			C1059.3,243.7,1056.5,250.7,1056.5,259z"/>
		<path class="st0" d="M1154.1,219.7v67.9h23.3v11.2h-35.2v-79.1H1154.1z"/>
		<path class="st0" d="M1181.5,258.9c0-11.1,4.1-20.7,12.2-28.7c8.1-8,17.9-12,29.3-12c11.3,0,20.9,4,29,12.1
			c8.1,8.1,12.1,17.7,12.1,29c0,11.4-4.1,21-12.2,28.9c-8.2,8-18,11.9-29.6,11.9c-10.2,0-19.4-3.5-27.5-10.6
			C1186,281.8,1181.5,271.6,1181.5,258.9z M1193.5,259c0,8.7,2.9,15.9,8.8,21.6c5.8,5.6,12.6,8.5,20.2,8.5c8.3,0,15.3-2.9,21-8.6
			c5.7-5.8,8.6-12.9,8.6-21.2c0-8.4-2.8-15.5-8.5-21.2c-5.6-5.7-12.5-8.6-20.8-8.6c-8.2,0-15.2,2.9-20.9,8.6
			C1196.4,243.7,1193.5,250.7,1193.5,259z"/>
		<path class="st0" d="M1319.9,257.6h32.7v2.6c0,5.9-0.7,11.2-2.1,15.8c-1.4,4.2-3.7,8.2-6.9,11.9c-7.3,8.3-16.7,12.4-28,12.4
			c-11.1,0-20.5-4-28.4-12c-7.9-8-11.8-17.7-11.8-28.9c0-11.5,4-21.2,12-29.2c8-8,17.8-12,29.3-12c6.2,0,12,1.3,17.3,3.8
			c5.1,2.5,10.2,6.6,15.1,12.3l-8.5,8.1c-6.5-8.6-14.4-13-23.7-13c-8.4,0-15.4,2.9-21.1,8.7c-5.7,5.7-8.5,12.8-8.5,21.3
			c0,8.8,3.2,16.1,9.5,21.8c5.9,5.3,12.3,7.9,19.2,7.9c5.9,0,11.2-2,15.8-5.9c4.7-4,7.3-8.8,7.8-14.3h-19.7V257.6z M1322.2,321.3
			l-3.8,7.7l-6.4-2.7l3.1-7.7l-0.3-2.4h-4.1v-12.8h11.5V321.3z"/>
		<path class="st0" d="M1379.5,219.7v79.1h-11.9v-79.1H1379.5z"/>
		<path class="st0" d="M1422.6,219.7v51.2c0,6.1-0.4,10.7-1.3,13.7c-0.9,3.4-2.3,6.3-4.4,8.7c-4,4.7-9.3,7-15.9,7
			c-5,0-9.6-1.3-14-3.9l5.8-10.2c2.9,1.9,5.6,2.9,8.1,2.9c3.6,0,6-1.3,7.4-4c1.4-2.7,2.2-7.4,2.2-14.1v-51.2H1422.6z"/>
		<path class="st0" d="M1485.3,279.6h-33.9l-8.8,19.2h-12.9l39.1-84.1l37.8,84.1h-13.1L1485.3,279.6z M1480.4,268.4l-11.7-26.9
			l-12.3,26.9H1480.4z"/>
		<path class="st0" d="M1561.3,231.5l-9.7,5.7c-1.8-3.1-3.5-5.2-5.2-6.1c-1.7-1.1-3.9-1.6-6.6-1.6c-3.3,0-6.1,0.9-8.2,2.8
			c-2.2,1.8-3.3,4.2-3.3,7c0,3.9,2.9,7,8.6,9.3l7.9,3.2c6.4,2.6,11.1,5.8,14.1,9.5c3,3.7,4.5,8.3,4.5,13.8c0,7.3-2.4,13.3-7.3,18
			c-4.9,4.8-10.9,7.2-18.2,7.2c-6.9,0-12.5-2-17-6.1c-4.4-4.1-7.2-9.8-8.2-17.2l12.1-2.7c0.5,4.6,1.5,7.9,2.9,9.6
			c2.5,3.4,6,5.1,10.8,5.1c3.7,0,6.8-1.2,9.3-3.7c2.5-2.5,3.7-5.7,3.7-9.5c0-1.5-0.2-2.9-0.6-4.2c-0.4-1.3-1.1-2.5-2-3.5
			c-0.9-1.1-2.1-2.1-3.5-3c-1.4-0.9-3.1-1.8-5.1-2.7l-7.6-3.2c-10.8-4.6-16.2-11.3-16.2-20.1c0-5.9,2.3-10.9,6.8-14.9
			c4.5-4,10.2-6,17-6C1549,218.2,1556.2,222.6,1561.3,231.5z"/>
	</g>
	<g>
		<path class="st0" d="M597.1,353.7v80H585v-80H597.1z"/>
		<path class="st0" d="M616.3,433.7v-85.5l58.4,61.1v-55.6h12.1v84.9l-58.4-60.9v56H616.3z"/>
		<path class="st0" d="M751.2,365.6l-9.8,5.8c-1.8-3.2-3.6-5.3-5.2-6.2c-1.7-1.1-4-1.7-6.7-1.7c-3.4,0-6.1,1-8.3,2.9
			c-2.2,1.9-3.3,4.2-3.3,7c0,3.9,2.9,7,8.7,9.4l8,3.3c6.5,2.6,11.2,5.8,14.3,9.6c3,3.8,4.5,8.4,4.5,13.9c0,7.4-2.5,13.4-7.4,18.2
			c-4.9,4.8-11.1,7.3-18.4,7.3c-6.9,0-12.7-2.1-17.2-6.2c-4.5-4.1-7.2-9.9-8.3-17.4l12.2-2.7c0.6,4.7,1.5,7.9,2.9,9.7
			c2.5,3.5,6.1,5.2,10.9,5.2c3.8,0,6.9-1.3,9.4-3.8c2.5-2.5,3.7-5.7,3.7-9.6c0-1.6-0.2-3-0.6-4.3c-0.4-1.3-1.1-2.5-2-3.6
			s-2.1-2.1-3.6-3.1s-3.2-1.9-5.2-2.7l-7.7-3.2c-11-4.6-16.4-11.4-16.4-20.3c0-6,2.3-11,6.9-15.1c4.6-4.1,10.3-6.1,17.2-6.1
			C738.8,352.2,746,356.6,751.2,365.6z"/>
		<path class="st0" d="M791.4,365.1v68.7h-12.1v-68.7h-18.4v-11.4h48.8v11.4H791.4z"/>
		<path class="st0" d="M832.6,353.7v80h-12.1v-80H832.6z"/>
		<path class="st0" d="M873.9,365.1v68.7h-12.1v-68.7h-18.4v-11.4h48.8v11.4H873.9z"/>
		<path class="st0" d="M915.1,353.7v48.2c0,6.9,1.1,11.9,3.4,15.1c3.4,4.6,8.1,6.9,14.2,6.9c6.1,0,10.9-2.3,14.2-6.9
			c2.2-3.1,3.4-8.1,3.4-15.1v-48.2h12.1v51.5c0,8.4-2.6,15.4-7.9,20.8c-5.9,6.1-13.2,9.1-21.8,9.1c-8.6,0-15.8-3-21.7-9.1
			c-5.3-5.5-7.9-12.4-7.9-20.8v-51.5H915.1z M914.7,334.9H951v9.3h-36.3V334.9z"/>
		<path class="st0" d="M1003.5,365.1v68.7h-12.1v-68.7h-18.4v-11.4h48.8v11.4H1003.5z"/>
		<path class="st0" d="M1077.8,365.6l-9.8,5.8c-1.8-3.2-3.6-5.3-5.2-6.2c-1.7-1.1-4-1.7-6.7-1.7c-3.4,0-6.1,1-8.3,2.9
			c-2.2,1.9-3.3,4.2-3.3,7c0,3.9,2.9,7,8.7,9.4l8,3.3c6.5,2.6,11.2,5.8,14.3,9.6c3,3.8,4.5,8.4,4.5,13.9c0,7.4-2.5,13.4-7.4,18.2
			c-4.9,4.8-11.1,7.3-18.4,7.3c-6.9,0-12.7-2.1-17.2-6.2c-4.5-4.1-7.2-9.9-8.3-17.4l12.2-2.7c0.6,4.7,1.5,7.9,2.9,9.7
			c2.5,3.5,6.1,5.2,10.9,5.2c3.8,0,6.9-1.3,9.4-3.8c2.5-2.5,3.7-5.7,3.7-9.6c0-1.6-0.2-3-0.6-4.3c-0.4-1.3-1.1-2.5-2-3.6
			c-0.9-1.1-2.1-2.1-3.5-3.1c-1.5-1-3.2-1.9-5.2-2.7l-7.7-3.2c-11-4.6-16.4-11.4-16.4-20.3c0-6,2.3-11,6.9-15.1
			c4.6-4.1,10.3-6.1,17.2-6.1C1065.4,352.2,1072.6,356.6,1077.8,365.6z"/>
	</g>
	<g>
		<path class="st1" d="M398.6,253.7c-65.6,29.2-109.7-9.4-157.4-16.8c0,0-0.1,0-0.1,0c-10-2-20.5-1.8-30.7,0.6
			c-26.1,5.7-38,23.5-38,23.5l0,0c-18.2,21.6-22.6,52.9-8.7,79.5c9.9,18.9,27.1,31.5,46.4,36.3c0,0,0,0,0,0c1.9,0.5,3.9,0.9,5.9,1.2
			c26.2,4.9,84.4,21.5,171.8-35.7c34.5-22.5,58-48.9,76.2-80.6c18.7-32.6,21.1-84.9,5.3-118.9c-0.1-0.2-0.2-0.4-0.3-0.6
			C466.7,199.7,435.7,237.2,398.6,253.7z"/>
	</g>
	<g>
		<path class="st0" d="M416.6,74.2c-7.4-11.3-17.1-21-28.2-28.9c-0.6-0.5-1.3-0.9-1.9-1.4C359.4,25.3,329,12.2,297,5.4
			C242.9-6.1,184.5,0.5,131.7,28.2c0,0,0,0,0,0c-1.9,1-3.7,2-5.5,3c-0.7,0.4-1.3,0.8-2,1.1c-1.2,0.7-2.4,1.3-3.5,2
			c-0.8,0.4-1.5,0.9-2.2,1.4c-1,0.6-2.1,1.3-3.1,1.9c-0.8,0.5-1.6,1-2.4,1.5c-1,0.6-1.9,1.2-2.9,1.9c-0.8,0.5-1.6,1.1-2.4,1.7
			c-0.9,0.6-1.8,1.2-2.7,1.8c-0.8,0.6-1.6,1.1-2.4,1.7c-0.9,0.6-1.8,1.3-2.6,1.9c-0.8,0.6-1.6,1.2-2.3,1.8c-0.9,0.7-1.7,1.3-2.6,2
			c-0.8,0.6-1.5,1.2-2.3,1.8c-0.8,0.7-1.7,1.3-2.5,2c-0.8,0.6-1.5,1.3-2.2,1.9c-0.8,0.7-1.6,1.4-2.5,2.1c-0.7,0.6-1.5,1.3-2.2,1.9
			c-0.8,0.7-1.6,1.4-2.4,2.1c-0.7,0.6-1.4,1.3-2.1,2c-0.8,0.7-1.6,1.4-2.3,2.2c-0.7,0.7-1.4,1.4-2.1,2c-0.8,0.7-1.5,1.5-2.3,2.2
			c-0.7,0.7-1.4,1.4-2,2.1c-0.7,0.7-1.5,1.5-2.2,2.2c-0.7,0.7-1.3,1.4-2,2.1c-0.7,0.8-1.4,1.5-2.1,2.3c-0.7,0.7-1.3,1.5-1.9,2.2
			c-0.7,0.8-1.4,1.5-2,2.3c-0.6,0.7-1.3,1.5-1.9,2.3c-0.7,0.8-1.3,1.6-2,2.3c-0.6,0.8-1.2,1.5-1.8,2.3c-0.6,0.8-1.3,1.6-1.9,2.4
			c-0.6,0.8-1.2,1.6-1.8,2.3c-0.6,0.8-1.2,1.6-1.8,2.4c-0.6,0.8-1.2,1.6-1.7,2.4c-0.6,0.8-1.2,1.6-1.8,2.4c-0.6,0.8-1.1,1.6-1.7,2.4
			c-0.6,0.8-1.1,1.6-1.7,2.5c-0.5,0.8-1.1,1.7-1.6,2.5c-0.5,0.8-1.1,1.7-1.6,2.5c-0.5,0.8-1,1.7-1.5,2.5c-0.5,0.9-1.1,1.7-1.6,2.6
			c-0.5,0.8-1,1.7-1.5,2.5c-0.5,0.9-1,1.7-1.5,2.6c-0.5,0.8-0.9,1.7-1.4,2.6c-0.5,0.9-1,1.8-1.4,2.6c-0.5,0.9-0.9,1.7-1.4,2.6
			c-0.5,0.9-0.9,1.8-1.4,2.7c-0.4,0.9-0.9,1.8-1.3,2.7c-0.4,0.9-0.9,1.8-1.3,2.7c-0.4,0.9-0.8,1.8-1.2,2.7c-0.4,0.9-0.8,1.8-1.2,2.7
			c-0.4,0.9-0.8,1.8-1.2,2.7c-0.4,0.9-0.8,1.8-1.2,2.7c-0.4,0.9-0.7,1.8-1.1,2.7c-0.4,0.9-0.7,1.8-1.1,2.7c-0.4,0.9-0.7,1.8-1,2.8
			c-0.3,0.9-0.7,1.8-1,2.8c-0.3,0.9-0.7,1.8-1,2.8c-0.3,0.9-0.7,1.9-1,2.8c-0.3,0.9-0.6,1.9-0.9,2.8c-0.3,0.9-0.6,1.9-0.9,2.8
			c-0.3,0.9-0.6,1.9-0.8,2.8c-0.3,1-0.6,1.9-0.8,2.9c-0.3,0.9-0.5,1.9-0.8,2.8c-0.3,1-0.5,1.9-0.8,2.9c-0.2,0.9-0.5,1.9-0.7,2.9
			c-0.2,1-0.5,1.9-0.7,2.9c-0.2,1-0.4,1.9-0.6,2.9c-0.2,1-0.4,1.9-0.6,2.9c-0.2,1-0.4,1.9-0.6,2.9C4.4,200,4.2,201,4,202
			c-0.2,1-0.3,1.9-0.5,2.9c-0.2,1-0.3,2-0.5,2.9c-0.2,1-0.3,1.9-0.4,2.9c-0.1,1-0.3,2-0.4,2.9c-0.1,1-0.2,2-0.4,2.9
			c-0.1,1-0.2,2-0.4,3c-0.1,1-0.2,2-0.3,2.9c-0.1,1-0.2,2-0.3,3c-0.1,1-0.2,2-0.2,3c-0.1,1-0.1,2-0.2,3c-0.1,1-0.1,2-0.2,3
			c0,1-0.1,2-0.1,3c0,1-0.1,2-0.1,3c0,1-0.1,2-0.1,3c0,1,0,2,0,3c0,1,0,2,0,3c0,1,0,2,0.1,3c0,1,0,2,0.1,3c0,1,0.1,2,0.1,3
			c0,1,0.1,2,0.2,3c0.1,1,0.1,2,0.2,3c0.1,1,0.1,2,0.2,3c0.1,1,0.2,2,0.3,3c0.1,1,0.2,2,0.3,3c0.1,1,0.2,2,0.4,3c0.1,1,0.2,2,0.4,3
			c0.1,1,0.3,2,0.4,3c0.1,1,0.3,2,0.4,3c0.2,1,0.3,2,0.5,3c0.2,1,0.3,2,0.5,3c0.2,1,0.4,2,0.6,3c0.2,1,0.4,2,0.6,3
			c0.2,1,0.4,2,0.7,3c0.2,1,0.4,2,0.7,3c0.2,1,0.5,2,0.7,3c0.2,1,0.5,2,0.8,3c0.3,1,0.5,2,0.8,3c0.3,1,0.5,2,0.8,2.9
			c0.3,1,0.6,2,0.9,3c0.3,1,0.6,2,0.9,2.9c0.3,1,0.6,2,1,3c0.3,1,0.6,1.9,1,2.9c0.3,1,0.7,2,1.1,2.9c0.3,1,0.7,1.9,1.1,2.9
			c0.4,1,0.8,2,1.1,2.9c0.4,1,0.7,1.9,1.1,2.9c0.4,1,0.8,1.9,1.2,2.9c0.4,1,0.8,1.9,1.2,2.9c0.4,1,0.9,1.9,1.3,2.9
			c0.4,0.9,0.9,1.9,1.3,2.8c0.4,1,0.9,1.9,1.4,2.9c0.5,0.9,0.9,1.9,1.4,2.8c0.5,1,1,1.9,1.5,2.9c0.4,0.7,0.7,1.4,1,2.1
			c0.1,0.3,0.3,0.5,0.4,0.8c0.1,0.3,0.3,0.5,0.4,0.8c0.4,0.7,0.8,1.4,1.1,2.1c0.5,0.9,1,1.8,1.5,2.7c0.5,0.9,1,1.7,1.5,2.5
			c0.6,1,1.2,2,1.8,3c0.4,0.7,0.8,1.3,1.2,1.9c0.7,1.2,1.5,2.4,2.2,3.6c0.2,0.4,0.5,0.7,0.7,1.1c64.4,100.6,192.6,140.4,302.7,93.8
			c0.2-0.1,0.5-0.2,0.7-0.3c1.4-0.6,2.7-1.2,4.1-1.8c0.6-0.3,1.2-0.5,1.8-0.8c1.1-0.5,2.2-1,3.3-1.5c0.8-0.4,1.7-0.8,2.5-1.2
			c0.9-0.5,1.9-0.9,2.8-1.4c0.7-0.4,1.5-0.7,2.2-1.1c0.2-0.1,0.4-0.2,0.6-0.3c0.2-0.1,0.4-0.2,0.6-0.3c0.8-0.4,1.6-0.8,2.3-1.3
			c0.9-0.5,1.8-0.9,2.6-1.4c1.1-0.6,2.1-1.2,3.2-1.8c0.8-0.4,1.5-0.9,2.3-1.3c1.2-0.7,2.4-1.4,3.5-2.1c0.6-0.4,1.2-0.7,1.8-1.1
			c1.4-0.9,2.8-1.7,4.1-2.6c0.4-0.2,0.7-0.5,1.1-0.7c1.6-1.1,3.2-2.1,4.8-3.2c0.1-0.1,0.2-0.1,0.3-0.2c5.1-3.6,10.1-7.3,14.9-11.2
			C242.8,506.2,138.7,411,138.7,411l0,0c-13.1-11.2-24.1-24.8-32.3-40.3c-19.7-37.5-20.7-80.8-4.3-118.1l1.9-4.2l4.1-7.8
			c3.8-6.7,8.2-13.2,13.1-19.3c8.3-10.9,32.2-37.3,74.6-46.8c18.6-4.4,37.5-4.8,56.3-1.3c20,3.2,37.8,9.7,53.6,15.4
			c28.7,10.3,33.5,11.9,50.1,9.9c3.6-0.4,7.1-1.2,10.5-2.1c5.1-1.5,12.8-5.3,17.2-8.2c15.2-10.1,32-26,38.3-40.6
			C431,126.5,435.4,103,416.6,74.2z"/>
	</g>
</g>
</svg>
